<?xml version="1.0" encoding="utf-8"?>
<!-- Generator: Adobe Illustrator 22.1.0, SVG Export Plug-In . SVG Version: 6.00 Build 0)  -->
<svg xmlns="http://www.w3.org/2000/svg" xmlns:xlink="http://www.w3.org/1999/xlink" version="1.1" id="Layer_1" x="0px" y="0px" viewBox="0 0 256 256" style="enable-background:new 0 0 256 256;" xml:space="preserve" width="512" height="512">
<style type="text/css">
	.st0{fill:#FFA730;}
	.st1{fill:#E58D23;}
	.st2{fill:#FFB74B;}
	.st3{fill:#BF6C0D;}
	.st4{fill:#A56021;}
	.st5{fill:#CCC033;}
	.st6{fill:#99AF17;}
	.st7{fill:#EACF32;}
	.st8{fill:#FCDA4F;}
	.st9{fill:#FFDF74;}
	.st10{fill:#FCE575;}
	.st11{fill:#FFD551;}
	.st12{fill:#FFC34C;}
	.st13{fill:#F9BB32;}
	.st14{fill:#FFF4C1;}
	.st15{fill:#DB9C2E;}
	.st16{fill:#8C4C17;}
	.st17{fill:#FF624B;}
	.st18{fill:#FF4B34;}
	.st19{fill:#FF9079;}
	.st20{fill:#FFD59A;}
	.st21{fill:#FFEACF;}
	.st22{fill:#FCF9DE;}
</style>
<g>
	<g>
		<g>
			<path class="st4" d="M192.644,225.068h-133V14.972c0-3.314,2.686-6,6-6h121c3.314,0,6,2.686,6,6V225.068z"/>
		</g>
	</g>
	<g>
		<g>
			<path class="st3" d="M184.645,82.02c-1.657,0-3-1.343-3-3v-60c0-1.657,1.343-3,3-3s3,1.343,3,3v60     C187.645,80.677,186.302,82.02,184.645,82.02z"/>
		</g>
	</g>
	<g>
		<g>
			<path class="st1" d="M220.144,247.028h-188c-2.209,0-4-1.791-4-4v-13.96c0-2.209,1.791-4,4-4h188c2.209,0,4,1.791,4,4v13.96     C224.144,245.237,222.353,247.028,220.144,247.028z"/>
		</g>
	</g>
	<g>
		<g>
			<circle class="st13" cx="180.127" cy="117.02" r="6"/>
		</g>
	</g>
	<g>
		<g>
			<path class="st16" d="M93.644,8.972h-28c-3.314,0-6,2.686-6,6v210.096h28V14.972C87.644,11.658,90.331,8.972,93.644,8.972z"/>
		</g>
	</g>
	<g>
		<g>
			<path class="st1" d="M81.324,206.583v-78.66c0-2.096,1.699-3.795,3.795-3.795h81.977c2.096,0,3.795,1.699,3.795,3.795v78.66     c0,2.096-1.699,3.795-3.795,3.795H85.118C83.023,210.378,81.324,208.679,81.324,206.583z"/>
		</g>
	</g>
	<g>
		<g>
			<path class="st1" d="M80.89,105.833v-78.66c0-2.096,1.699-3.795,3.795-3.795h81.977c2.096,0,3.795,1.699,3.795,3.795v78.66     c0,2.096-1.699,3.795-3.795,3.795H84.685C82.589,109.627,80.89,107.928,80.89,105.833z"/>
		</g>
	</g>
	<g>
		<g>
			<path class="st3" d="M92.89,37.172c0-2.096,1.699-3.795,3.795-3.795h73.772v-6.205c0-2.096-1.699-3.795-3.795-3.795H84.685     c-2.096,0-3.795,1.699-3.795,3.795v78.66c0,2.096,1.699,3.795,3.795,3.795h8.205V37.172z"/>
		</g>
	</g>
	<g>
		<g>
			<path class="st3" d="M93.324,139.923c0-2.096,1.699-3.795,3.795-3.795h73.772v-8.205c0-2.096-1.699-3.795-3.795-3.795H85.118     c-2.096,0-3.795,1.699-3.795,3.795v78.66c0,2.096,1.699,3.795,3.795,3.795h8.205V139.923z"/>
		</g>
	</g>
	<g>
		<g>
			<path class="st4" d="M87.644,23.378h-2.959c-2.096,0-3.795,1.699-3.795,3.795v78.66c0,2.096,1.699,3.795,3.795,3.795h2.959     V23.378z"/>
		</g>
	</g>
	<g>
		<g>
			<path class="st4" d="M87.644,124.128h-2.526c-2.096,0-3.795,1.699-3.795,3.795v78.66c0,2.096,1.699,3.795,3.795,3.795h2.526     V124.128z"/>
		</g>
	</g>
	<g>
		<g>
			<path class="st3" d="M56.144,243.028v-13.96c0-2.209,1.791-4,4-4h-28c-2.209,0-4,1.791-4,4v13.96c0,2.209,1.791,4,4,4h28     C57.935,247.028,56.144,245.237,56.144,243.028z"/>
		</g>
	</g>
	<g>
		<g>
			<circle class="st3" cx="104.89" cy="44.631" r="9"/>
		</g>
	</g>
	<g>
		<g>
			<path class="st13" d="M221.526,246.631h-89.34c-3.496,0-6.33-2.834-6.33-6.33v-83.34c0-3.496,2.834-6.33,6.33-6.33h89.34     c3.496,0,6.33,2.834,6.33,6.33v83.34C227.856,243.797,225.022,246.631,221.526,246.631z"/>
		</g>
	</g>
	<g>
		<g>
			<g>
				<path class="st4" d="M218.911,229.311h-1.704v8.094c0,0.286-0.278,0.519-0.621,0.519h-5.508c-0.343,0-0.621-0.232-0.621-0.519      v-8.094h-1.724c-0.202,0-0.308-0.2-0.172-0.325l5.15-4.735c0.028-0.026,0.069-0.041,0.111-0.041s0.083,0.015,0.111,0.041      l5.15,4.735C219.219,229.111,219.113,229.311,218.911,229.311z"/>
			</g>
		</g>
	</g>
	<g>
		<g>
			<path class="st12" d="M224.308,205.988c-1.657,0-3-1.343-3-3v-45.714c0-1.657,1.343-3,3-3s3,1.343,3,3v45.714     C227.308,204.645,225.965,205.988,224.308,205.988z"/>
		</g>
	</g>
	<g>
		<g>
			<path class="st4" d="M189.375,230.758h-21.307c-1.104,0-2-0.896-2-2s0.896-2,2-2h21.307c1.104,0,2,0.896,2,2     S190.479,230.758,189.375,230.758z"/>
		</g>
	</g>
	<g>
		<g>
			<path class="st4" d="M189.375,238h-21.307c-1.104,0-2-0.896-2-2s0.896-2,2-2h21.307c1.104,0,2,0.896,2,2S190.479,238,189.375,238     z"/>
		</g>
	</g>
	<g>
		<g>
			<path class="st4" d="M149.197,238.18h-18.026c-0.821,0-1.487-0.666-1.487-1.487v-8.816c0-0.821,0.666-1.487,1.487-1.487h18.026     c0.821,0,1.487,0.666,1.487,1.487v8.816C150.684,237.515,150.019,238.18,149.197,238.18z"/>
		</g>
	</g>
	<g>
		<g>
			<circle class="st15" cx="150.436" cy="163.273" r="9"/>
		</g>
	</g>
	<g>
		<g>
			<path class="st15" d="M138.273,240.205v-83.146c0-3.549,2.791-6.427,6.235-6.427H132.09c-3.443,0-6.235,2.877-6.235,6.427v83.146     c0,3.549,2.791,6.427,6.235,6.427h12.417C141.065,246.631,138.273,243.754,138.273,240.205z"/>
		</g>
	</g>
	<g>
		<g>
			<path class="st16" d="M131.149,226.391c-0.809,0-1.464,0.676-1.464,1.51v8.77c0,0.834,0.656,1.51,1.464,1.51h7.124v-11.789     H131.149z"/>
		</g>
	</g>
	<g>
		<g>
			<path class="st9" d="M191.659,193.176v-42.544h-27.117v42.544c2.256,0,2.256,4.254,4.512,4.254c2.258,0,2.258-4.254,4.517-4.254     c2.259,0,2.259,4.254,4.518,4.254c2.259,0,2.259-4.254,4.519-4.254c2.263,0,2.263,4.254,4.526,4.254     C189.396,197.43,189.396,193.176,191.659,193.176z"/>
		</g>
	</g>
	<g>
		<g>
			<path class="st14" d="M188.11,192.954c-1.104,0-2-0.896-2-2v-36.665c0-1.104,0.896-2,2-2s2,0.896,2,2v36.665     C190.11,192.058,189.215,192.954,188.11,192.954z"/>
		</g>
	</g>
</g>
</svg>
