<svg height="512" viewBox="0 0 512 512" width="512" xmlns="http://www.w3.org/2000/svg"><rect fill="#4b55a5" height="336" rx="32" width="480" x="16" y="128"/><rect fill="#6478b9" height="336" rx="32" width="448" x="16" y="128"/><rect fill="#353744" height="272" rx="8" width="384" x="48" y="160"/><path d="m168 208h-16a48 48 0 0 0 -48 48v112h56v-16h28a28 28 0 0 0 28-28v-68a48 48 0 0 0 -48-48z" fill="#fab991"/><path d="m152 256h-48a8 8 0 0 0 -8 8v64a8 8 0 0 0 8 8h32a8 8 0 0 0 8-8v-40h8a8 8 0 0 0 8-8v-16a8 8 0 0 0 -8-8z" fill="#d7e6e6"/><path d="m144 272a0 0 0 0 1 0 0v32a0 0 0 0 1 0 0 16 16 0 0 1 -16-16 16 16 0 0 1 16-16z" fill="#f0915a"/><path d="m120 352h40a0 0 0 0 1 0 0v16a0 0 0 0 1 0 0h-56a0 0 0 0 1 0 0 16 16 0 0 1 16-16z" fill="#f0915a"/><path d="m104 368h88a24 24 0 0 1 24 24v72a0 0 0 0 1 0 0h-136a0 0 0 0 1 0 0v-72a24 24 0 0 1 24-24z" fill="#d7322d"/><path d="m160 368h-24a24 24 0 0 1 24 24v27.333a12 12 0 0 0 12 12 12 12 0 0 0 12-12v-27.333a24 24 0 0 0 -24-24z" fill="#d7e6e6"/><path d="m104 368a24 24 0 0 1 24 24v72a0 0 0 0 1 0 0h-48a0 0 0 0 1 0 0v-72a24 24 0 0 1 24-24z" fill="#f04b37"/><circle cx="181.333" cy="277.333" fill="#353744" r="5.333"/><circle cx="202.667" cy="277.333" fill="#353744" r="5.333"/><path d="m186.667 288a16 16 0 0 1 16 16 8 8 0 0 1 -8 8 8 8 0 0 1 -8-8v-16a0 0 0 0 1 0 0z" fill="#f0915a"/><path d="m186.667 328h16a0 0 0 0 1 0 0 8 8 0 0 1 -8 8 8 8 0 0 1 -8-8 0 0 0 0 1 0 0z" fill="#353744"/><path d="m464 48h-176a32 32 0 0 0 -32 32v244.686a11.313 11.313 0 0 0 11.314 11.314h48a11.314 11.314 0 0 0 8-3.314l44.686-44.686h96a32 32 0 0 0 32-32v-176a32 32 0 0 0 -32-32z" fill="#f5871e"/><path d="m256 80v244.686a11.313 11.313 0 0 0 11.314 11.314 11.314 11.314 0 0 0 8-3.314l44.686-44.686h96a32 32 0 0 0 32-32v-176a32 32 0 0 0 -32-32h-128a32 32 0 0 0 -32 32z" fill="#fabe19"/><g fill="#f5871e"><rect height="32" rx="16" width="128" x="288" y="96"/><rect height="32" rx="16" width="128" x="288" y="152"/><rect height="32" rx="16" width="64" x="288" y="208"/></g><path d="m240 400h48v32h-48z" fill="#f0915a"/><path d="m248 352a8 8 0 0 1 8 8v40a0 0 0 0 1 0 0h-16a0 0 0 0 1 0 0v-40a8 8 0 0 1 8-8z" fill="#f0915a"/><path d="m256 384h32a8 8 0 0 1 8 8v8a8 8 0 0 1 -8 8h-24a8 8 0 0 1 -8-8v-16a0 0 0 0 1 0 0z" fill="#fab991"/><path d="m248 416v-20a12 12 0 0 0 -12-12 4 4 0 0 0 -4 4v36a8 8 0 0 0 8 8h24a16 16 0 0 0 -16-16z" fill="#fab991"/><path d="m240 432h48v32h-48z" fill="#d7322d"/></svg>