<svg id="Capa_1" enable-background="new 0 0 512 512" height="512" viewBox="0 0 512 512" width="512" xmlns="http://www.w3.org/2000/svg"><g><g><path d="m446.059 58.167c-7.171 0-378.037 0-380.116 0-19.799 0-35.907 16.108-35.907 35.908v269.335c0 17.512 12.977 32.688 30.246 35.455l6.467 5.163h372.924l12.047-5.163c17.269-2.767 30.246-17.943 30.246-35.455 0-8.961 0-261.23 0-269.336 0-19.799-16.108-35.907-35.907-35.907z" fill="#365e7d"/><path d="m64.289 363.41v-269.336c0-19.8 16.108-35.908 35.907-35.908-20.909 0-33.87 0-34.253 0-19.799 0-35.907 16.108-35.907 35.908v269.336c0 17.512 12.977 32.688 30.246 35.455l6.467 5.163h34.253l-6.467-5.163c-17.27-2.767-30.246-17.943-30.246-35.455z" fill="#2b4d66"/><path d="m445.338 121.588h-376.53l-6.516 6.802v232.066c0 3.558 2.884 6.443 6.442 6.443h374.532c3.557 0 6.442-2.885 6.442-6.443 0-6.084 0-225.025 0-232.066z" fill="#e4f6ff"/><path d="m104.17 360.456v-232.066l6.516-6.802h-41.878l-6.516 6.802v232.066c0 3.558 2.884 6.443 6.442 6.443h41.878c-3.558 0-6.442-2.885-6.442-6.443z" fill="#d3effb"/><path d="m104.17 90.183h-35.436c-3.558 0-6.442 2.885-6.442 6.443v31.765h41.878l2.755-2.939v-33.224z" fill="#dd636e"/><path d="m443.266 90.182c-16.637 0-325.911 0-339.096 0v38.208h345.538v-31.765c0-3.558-2.884-6.443-6.442-6.443z" fill="#b1e4f9"/><path d="m506.005 398.865h-500.01c-3.311 0-5.995 2.71-5.995 6.054v20.823c0 15.45 12.519 28.091 27.82 28.091h456.36c15.301 0 27.82-12.641 27.82-28.091v-20.823c0-3.344-2.684-6.054-5.995-6.054z" fill="#407093"/><path d="m62.293 425.742v-20.823c0-3.344 2.684-6.054 5.995-6.054h-62.292c-3.311 0-5.995 2.71-5.995 6.054v20.823c0 15.45 12.519 28.091 27.82 28.091h62.293c-15.302 0-27.821-12.641-27.821-28.091z" fill="#365e7d"/><path d="m181.32 398.865v13.97c0 6.866 5.563 12.484 12.363 12.484h124.635c6.8 0 12.363-5.618 12.363-12.484v-13.97z" fill="#5c90b9"/><path d="m243.612 412.835v-13.97h-62.292v13.97c0 6.866 5.563 12.484 12.363 12.484h62.293c-6.8.001-12.364-5.618-12.364-12.484z" fill="#4a80aa"/></g><path d="m318.926 221.944-3.046 1.288v49.105l3.046 1.01 43.096 20.197v-91.798z" fill="#365e7d"/><path d="m315.88 241.616v30.721l3.046 1.01 43.096 20.197v-30.721l-43.096-20.197z" fill="#294b64"/><circle cx="402.431" cy="173.703" fill="#dd636e" r="17.17"/><path d="m402.431 173.703c0-6.351 3.458-11.884 8.585-14.854-2.528-1.464-5.454-2.316-8.585-2.316-9.482 0-17.169 7.687-17.169 17.17s7.687 17.17 17.169 17.17c3.131 0 6.057-.852 8.585-2.316-5.127-2.97-8.585-8.502-8.585-14.854z" fill="#da4a54"/><g><path d="m362.022 306.422c-4.267 0-7.726-3.459-7.726-7.726v-102.103c0-4.268 3.459-7.726 7.726-7.726s7.726 3.459 7.726 7.726v102.103c.001 4.268-3.459 7.726-7.726 7.726z" fill="#3f6d8e"/></g><path d="m298.813 316.67h-128.721c-11.109 0-20.114-9.005-20.114-20.114v-97.822c0-11.109 9.005-20.114 20.114-20.114h128.721c11.109 0 20.114 9.005 20.114 20.114v97.822c0 11.108-9.006 20.114-20.114 20.114z" fill="#3f6d8e"/><path d="m185.347 295.949v-96.609c0-11.444 9.277-20.721 20.721-20.721h-35.369c-11.444 0-20.721 9.277-20.721 20.721v96.608c0 11.444 9.277 20.721 20.721 20.721h35.369c-11.444.001-20.721-9.277-20.721-20.72z" fill="#365e7d"/><path d="m258.489 240.953-33.155-22.608c-5.376-3.666-12.661.184-12.661 6.691v45.216c0 6.507 7.285 10.357 12.661 6.691l33.155-22.608c4.715-3.214 4.715-10.167 0-13.382z" fill="#e4f6ff"/><path d="m234.452 270.252v-45.216c0-.155.024-.301.032-.452l-9.15-6.239c-5.376-3.666-12.661.184-12.661 6.691v45.216c0 6.507 7.285 10.357 12.661 6.691l9.15-6.239c-.008-.151-.032-.297-.032-.452z" fill="#d3effb"/></g></svg>